# xmcd
#
# Track frame offsets:
#	150
#	17749
#	33269
#	49318
#	65397
#	86522
#	99585
#	116034
#	133208
#	151518
#	167444
#	183595
#	200020
#	216508
#	235437
#	255128
#
# Disc length: 3611 seconds
#
# Revision: 0
# Processed by: cddbd v1.4PL0 Copyright (c) Steve Scherf et al.
# Submitted via: EasyCDDAExtractor 4.6.9.1
#
DISCID=d90e1910
DTITLE=Shania Twain - Come on Over
DYEAR=1997
DGENRE=Country
TTITLE0=Man! I Feel Like a Woman!
TTITLE1=I'm Holdin' On To Love (To Save My Life)
TTITLE2=Love Gets Me Every Time
TTITLE3=Don't Be Stupid! (You Know I Love You)
TTITLE4=From This Moment On
TTITLE5=Come On Over
TTITLE6=When
TTITLE7=Whatever You Do! Don't!
TTITLE8=If You Wanna Touch Her, Ask!
TTITLE9=You're Still the One
TTITLE10=Honey, I'm Home
TTITLE11=That Don't Impress Me Much
TTITLE12=Black Eyes, Blue Tears
TTITLE13=I Won't Leave You Lonely
TTITLE14=Rock This Country!
TTITLE15=You've Got a Way
EXTD=0\n\n\n
EXTT0=
EXTT1=
EXTT2=
EXTT3=
EXTT4=
EXTT5=
EXTT6=
EXTT7=
EXTT8=
EXTT9=
EXTT10=
EXTT11=
EXTT12=
EXTT13=
EXTT14=
EXTT15=
PLAYORDER=
